<svg xmlns="http://www.w3.org/2000/svg"><symbol id="brachiosaurus" viewBox="0 0 256 256"><path d="M59.65 167.31a31.75 31.75 0 0 0-7.61.87.57.57 0 0 1 0 .12.37.37 0 0 0 0 .13c0 .28.26.6.77 1a13.53 13.53 0 0 0 2 1c.79.33 1.68.67 2.63 1s1.89.61 2.78.86 1.68.45 2.38.6a10.54 10.54 0 0 0 1.45.21c.59 0 1.31 0 2.14-.1a14.21 14.21 0 0 0 2.49-.41 12 12 0 0 0 2.35-.87 4.41 4.41 0 0 0 1.68-1.47 27.38 27.38 0 0 0-6.39-2.25 30.29 30.29 0 0 0-6.67-.69z"/><path d="M128 0C58.42 0 2 57.3 2 128s56.42 128 126 128 126-57.3 126-128S197.58 0 128 0zm82.17 70.62v.32a6.84 6.84 0 0 1-.1 1.4c-.13.67-.19 1.39-.32 2.12s-.22 1.44-.35 2.11-.18 1.1-.23 1.35a10.46 10.46 0 0 0-.9 1.84c-.23.65-.44 1.3-.63 2s-.38 1.34-.58 2a15.34 15.34 0 0 1-.72 2 31.33 31.33 0 0 1-1.66 3.07 21.6 21.6 0 0 0-1.58 3.07l-19.78 27.92a3.35 3.35 0 0 1-.23.55 1.45 1.45 0 0 1-.27.28c-.08.09-.19.17-.31.29a3.2 3.2 0 0 0-.41.5l-1.64 2.27c-.64.9-1.33 1.87-2 2.9s-1.45 2.14-2.17 3.26-1.38 2.22-2 3.29a26.36 26.36 0 0 0-1.38 3 7.09 7.09 0 0 0-.52 2.33c0 .3-.22.54-.21.74s.19.43.19.7c-.16 0-.26.14-.26.38s.1.38.26.41v10.24a2.69 2.69 0 0 1-.24 1c-.16.37-.2.76-.36 1.17s-.49.82-.6 1.22-.44.8-.44 1.14v1.67a.41.41 0 0 1 0 .43c-.15.23-.21.5-.39.78s-.55.57-.71.82a2.15 2.15 0 0 1-.51.42v.4c0 .08.69.22.78.42s.86.33.86.42v2.85a23.83 23.83 0 0 1-.61 3.54c-.18 1.19-.55 2.35-.76 3.52s-.48 2.36-.67 3.54a23.41 23.41 0 0 0-.32 3.54c0 2.12.08 4.24.29 6.35a43.51 43.51 0 0 0 1.08 6.19 31.8 31.8 0 0 0 2.11 5.79 23.42 23.42 0 0 0 3.38 5.26 5.41 5.41 0 0 1-1.25.84 9.16 9.16 0 0 1-1.66.68 14.09 14.09 0 0 1-1.71.47 4.83 4.83 0 0 1-1.43.08l-.46-.1c-.29-.06-.62-.15-1-.25l-1.18-.26-1-.22a6.07 6.07 0 0 1-.74-.15 5.1 5.1 0 0 1-.74-.28 3.64 3.64 0 0 1-.61-.49 1.41 1.41 0 0 1-.32-.72 30.63 30.63 0 0 0 .11-4.09c-.05-1.42-.15-2.85-.28-4.29s-.33-2.87-.51-4.31-.38-2.78-.52-4.1a2.86 2.86 0 0 1-.2-.64 1.59 1.59 0 0 0-.25-.6c.07-1.12.1-2.34.13-3.67a39.6 39.6 0 0 0-.13-4.06 26.54 26.54 0 0 0-.59-4 11.44 11.44 0 0 0-1.4-3.43 3.35 3.35 0 0 0-1.44 1.81 21.69 21.69 0 0 0-.77 2.74c-.22 1-.2 1.94-.43 2.91s-.92 1.75-.92 2.35v7.62c0 2.85-.22 5.64-.1 8.34s.2 5.46.56 8.27a1.8 1.8 0 0 0 .41.33l.8.6a6 6 0 0 1 .79.7 1 1 0 0 1 .34.64c0 .23-.27.5-.81.8a14.27 14.27 0 0 1-1.83.87 21.35 21.35 0 0 1-2 .83 10.83 10.83 0 0 1-1.27.42h-.18l-4.71-2.6a.47.47 0 0 1-.22-.49v-.6a21.39 21.39 0 0 1 0-3 22.46 22.46 0 0 0 .11-3 26.84 26.84 0 0 0-.31-3.82c-.16-1.26-.38-2.51-.58-3.74s-.41-2.51-.59-3.78a31.24 31.24 0 0 1-.25-3.92c0-1.24 0-2.35.11-3.34s.2-1.92.35-2.82.34-1.85.52-2.82.41-2 .66-3.22a1.44 1.44 0 0 0-.05-.72 4.7 4.7 0 0 1-.11-.72 7.82 7.82 0 0 0-1.86.22c-.61.15-1.22.31-1.84.51s-1.27.4-1.91.62a14.34 14.34 0 0 1-1.89.52c-.51.07-1 .13-1.35.2s-.72.1-1.06.13a9.26 9.26 0 0 1-1-.11c-.32 0-.68-.17-1.06-.17h-1.8c-1.79 0-3.54.11-5.21 0a52.09 52.09 0 0 0-5.21-.16c-.77 0-1.58.07-2.42.1a4.05 4.05 0 0 0-2.33.86v5.24c0 1.72-.09 3.43-.16 5.13s-.2 3.43-.26 5.14-.15 3.46-.15 5.23v5.08c0 .55.66 1.12 1.12 1.69s.94 1.13 1.39 1.72a15.12 15.12 0 0 1 1.18 1.77 3.43 3.43 0 0 1 .52 1.8v.38a8.83 8.83 0 0 1-4 .4c.08.49 0 .74-.23.8a3.39 3.39 0 0 1-.7.07h-2a9.56 9.56 0 0 1-2.24-.23 4.17 4.17 0 0 1-1.8-.85 2.25 2.25 0 0 1-.76-1.87 7.34 7.34 0 0 1 .13-1.3c.1-.44.2-.87.31-1.3s.23-.87.32-1.32a7.18 7.18 0 0 0 .13-1.41 25.29 25.29 0 0 0-.27-3.85c-.18-1.24-.41-2.44-.67-3.63s-.53-2.66-.8-3.84a27.08 27.08 0 0 1-.71-4h-.43c-.21 0-.38.76-.51.92s-.26.49-.39.69-.23.42-.31.54c-.5.75-1 1.55-1.55 2.29s-1 1.52-1.45 2.28a17.59 17.59 0 0 0-1.06 2.45 8.64 8.64 0 0 0-.43 2.71 4.33 4.33 0 0 0 .33 1.64 15.37 15.37 0 0 0 .72 1.52c.26.45.51.85.72 1.17a1.8 1.8 0 0 1 .33.58.87.87 0 0 1-.41.74 3 3 0 0 1-1 .46 10.26 10.26 0 0 1-1.32.27c-.46 0-.9.1-1.33.1h-1.24a11 11 0 0 1-1.71-.13 2.12 2.12 0 0 1-1.06-.39 2.23 2.23 0 0 1-.69-.88 9.81 9.81 0 0 1-.55-1.63c-.16-.55-.32-1.09-.51-1.62a5.22 5.22 0 0 1-.27-1.67 3.4 3.4 0 0 1 .41-1.51c.28-.52.59-1.07.93-1.6s.71-1.07 1-1.59a6.73 6.73 0 0 0 .81-1.45c.84-2 1.64-4 2.43-5.94s1.61-4 2.45-5.95a4.87 4.87 0 0 1 .46-.75c.18-.23.36-.48.53-.72a3.07 3.07 0 0 0 .42-.75 1.68 1.68 0 0 0 .18-.83c0-.37-.11-.59-.32-.64a3 3 0 0 0-.64-.08 1.89 1.89 0 0 0-.38.05h-.25l-8.91 2.46a2.73 2.73 0 0 1-1.29.53l-1.76.4a6.66 6.66 0 0 0-1.56.59 1.12 1.12 0 0 0-.69 1.07 1.52 1.52 0 0 0 .26.9 2.66 2.66 0 0 0 .64.66c.26.19.54.37.82.56a2.71 2.71 0 0 1 .74.61l-.39.44c-.38-.27-.81-.55-1.27-.85a12.65 12.65 0 0 0-1.4-.84 8.7 8.7 0 0 0-1.49-.62 4.84 4.84 0 0 0-1.5-.23 14.3 14.3 0 0 0-3.76.52c-1.28.33-2.6.72-3.93 1.13s-2.68.82-4.06 1.15a16.38 16.38 0 0 1-4.17.52 20.74 20.74 0 0 1-3.44-.4 47.49 47.49 0 0 1-4.76-1.15c-1.76-.5-3.55-1.08-5.38-1.77a36.76 36.76 0 0 1-5-2.27A15.38 15.38 0 0 1 47 173a4.25 4.25 0 0 1-1.43-3 4.53 4.53 0 0 1 1.11-3.29 6.24 6.24 0 0 1 2.73-1.65 13.48 13.48 0 0 1 3.45-.15c1.22-.05 2.34.33 3.32.33h3.9a2.51 2.51 0 0 1 1.26-.25c.69.08 1.47 0 2.32.15s1.71.18 2.53.32 1.5.18 2 .26a7.42 7.42 0 0 1 1.92.55c.59.28 1.18.55 1.77.85a18.15 18.15 0 0 0 1.81.76 5.94 5.94 0 0 0 2 .34 8.63 8.63 0 0 0 3.94-1.07 30 30 0 0 0 4.1-2.58c1.34-1 2.64-2.05 3.86-3.14s2.3-2 3.24-2.73a16.68 16.68 0 0 1 1.84-1.26c.62-.35 1.23-.71 1.84-1.1a15.75 15.75 0 0 0 1.71-1.27 7.89 7.89 0 0 0 1.48-1.72 37.77 37.77 0 0 0 2.59-4.5 31.42 31.42 0 0 1 2.68-4.5 7.07 7.07 0 0 1 1.3-1.32 15.46 15.46 0 0 1 1.53-1c.52-.3 1.07-.6 1.61-.88a17.12 17.12 0 0 0 1.61-.92c1.21-.82 2.41-1.7 3.56-2.65s2.31-1.94 3.42-2.94 2.24-2 3.34-3 2.23-2 3.42-2.88a20.37 20.37 0 0 1 3.74-2.22c1.32-.61 2.62-1.24 3.9-1.87q1.26-.59 2.46-1.29c.81-.45 1.63-.9 2.45-1.32a25.22 25.22 0 0 1 2.55-1.15 12.31 12.31 0 0 1 2.65-.75l22.2-3.29a10.71 10.71 0 0 0 3.47-1.14 19.76 19.76 0 0 0 3.33-2.2 31.65 31.65 0 0 0 3.16-2.91c1-1.06 2-2.17 2.89-3.27s1.81-2.19 2.65-3.24 1.59-2 2.3-2.82l7.64-9a1.48 1.48 0 0 0 .33-.26c.18-.17.34-.36.52-.56a6.19 6.19 0 0 0 .51-.53c.17-.15.25-.25.28-.27l2-3.29.25-.16.38-.24.38-.23a.81.81 0 0 0 .21-.2 2.69 2.69 0 0 0 .41-.4l.36-.4c.38-.5.79-1.07 1.23-1.72s.92-1.3 1.37-2 .89-1.33 1.3-2a17.77 17.77 0 0 0 1-1.74 12.44 12.44 0 0 0 .85-2c.23-.7.46-1.42.69-2.14s.5-1.47.76-2.2 1-1.49 1-2.22v-6.17a5.23 5.23 0 0 0-1.08-3.1 11.67 11.67 0 0 0-2.61-2.64 12.87 12.87 0 0 0-3.36-1.82 9.14 9.14 0 0 0-3.18-.69A24.25 24.25 0 0 0 186 56a12.08 12.08 0 0 0-5.08 2.65 13 13 0 0 0-1.43 1.44L177.88 62c-.58.66-1.15 1.33-1.74 2a21.37 21.37 0 0 1-1.83 1.85 11.34 11.34 0 0 1-1.81 1.32 3.42 3.42 0 0 1-1.75.52 1.69 1.69 0 0 1-1.66-1.62v-.44c0-.08.06-.25.11-.48s.11-.5.16-.77.11-.53.14-.78a2.71 2.71 0 0 0 .07-.47 5.43 5.43 0 0 0-.24-1.69 14.46 14.46 0 0 0-.59-1.37c-.23-.42-.41-.82-.59-1.2a3 3 0 0 1-.25-1.25 1.08 1.08 0 0 0 .84-.27 2.8 2.8 0 0 0 .44-.63l.43-.76a1.71 1.71 0 0 1 .79-.6 1.35 1.35 0 0 1 .54 0c.23 0 .53-.11.86-.11s.64-.1.9-.1h.51a1.09 1.09 0 0 0 .94-.37 3.76 3.76 0 0 1 .7-.67.58.58 0 0 1 .23 0h.15a.88.88 0 0 1 .25.38 1.6 1.6 0 0 0 .18.42.45.45 0 0 1 .39-.38c.1-.07.32-.19.63-.37l1.1-.65 1.35-.82 1.33-.8 1.08-.65a3.18 3.18 0 0 0 .56-.4 17.74 17.74 0 0 1 2.09-1.27 7.16 7.16 0 0 1 1.76-.63 9.34 9.34 0 0 1 1.9-.22h6.4a5.44 5.44 0 0 0 1.46.53 13.54 13.54 0 0 0 1.51.32c.51.1 1 .2 1.55.32a9 9 0 0 1 1.52.5 14.84 14.84 0 0 1 4.52 3 17 17 0 0 1 3.19 4.33 19.3 19.3 0 0 1 1.71 5.07 24.69 24.69 0 0 1 .48 5.5v1.54c0 .26-.02.53-.02.79z"/></symbol><symbol id="micropachycephalosaurus" viewBox="0 0 256 256"><path d="M132.83 151.3c-.28 0-.41.2-.41.6a.11.11 0 0 0-.08 0c-.32 0-.48.17-.48.5s.16.6.48.6.41-.2.41-.6.05 0 .08 0a.44.44 0 0 0 .51-.5c0-.4-.16-.6-.51-.6zm1.45-.8a2.3 2.3 0 0 0-.86.8h.3a2.22 2.22 0 0 0 1.1-.33 2.29 2.29 0 0 0 .84-.79h-.3a2 2 0 0 0-1.08.32zm3.02-2.59c-.28 0-.41.18-.41.55a.25.25 0 0 0-.13 0c-.28 0-.43.18-.43.57a.2.2 0 0 0-.11 0q-.48 0-.48.6c0 .37.16.55.48.55s.46-.18.46-.55 0 0 .08 0c.31 0 .46-.2.46-.6s.05 0 .08 0c.35 0 .51-.19.51-.57s-.16-.55-.51-.55zm23.03-5.91a14.7 14.7 0 0 1-1.27 1.42 1.77 1.77 0 0 0 .81 1.06 2.94 2.94 0 0 0 1.13.19 2.13 2.13 0 0 0 1.38-.48 4.66 4.66 0 0 0 1.05-1.23 10.33 10.33 0 0 0 .76-1.48c.21-.52.38-1.18.49-1.18h-3.38c-.2-.05-.51 1.03-.97 1.7z"/><path d="M128.33 0c-69.59 0-126 57.3-126 128s56.41 128 126 128 126-57.3 126-128-56.4-128-126-128zm94.48 75.93a4.91 4.91 0 0 1-1.54.39 15.31 15.31 0 0 1-1.65.08h-1.08c-.35 0-.66 0-.94.06a42.51 42.51 0 0 0-5.16 1.26 15.39 15.39 0 0 0-3.61 1.6 9.36 9.36 0 0 0-2.47 2.19 13.92 13.92 0 0 0-1.74 3 37 37 0 0 0-1.48 3.93c-.48 1.48-1 3.17-1.64 5.09-.4 1.2-.79 2.35-1.19 3.45s-.8 2.17-1.25 3.21-.9 2.09-1.43 3.15-1.1 2.14-1.74 3.26a33.3 33.3 0 0 1-2.64 4.11 78.96 78.96 0 0 1-2.93 3.69l-3.07 3.6c-1.06 1.2-2.07 2.49-3.09 3.85a10.86 10.86 0 0 0-1.37 2.69c-.29.89-.61 1.76-.95 2.57a8.34 8.34 0 0 1-1.33 2.22 5.51 5.51 0 0 1-2.51 1.57 8.17 8.17 0 0 1-1.33.56c-.62.22-1.3.46-2 .69l-2 .63c-.65.2-1.09.34-1.35.39a2.93 2.93 0 0 1 .16 2 2 2 0 0 1-.85.94 12.21 12.21 0 0 1-1.2.6 1.64 1.64 0 0 0-.89 1l-2.24 6.78a2.66 2.66 0 0 1-1 1.52 5.89 5.89 0 0 1-1.76.86 10 10 0 0 1-2 .19 13.81 13.81 0 0 1-1.84-.14h-.84c-.47 0-.85.17-1.11.06s-.42-.34-.42-.86a.57.57 0 0 1 .12-.37 2.26 2.26 0 0 1 .23-.29c.08-.1.16-.19.23-.29a.64.64 0 0 0 .1-.39.26.26 0 0 0 0-.11.87.87 0 0 1 0-.18 22.84 22.84 0 0 0-3.41 1.67c-1.1.65-2.22 1.35-3.33 2.07l-3.31 2.18a37 37 0 0 1-3.33 2 3.72 3.72 0 0 1-.86.45 10.48 10.48 0 0 0-1.15.59 4.49 4.49 0 0 0-1 .78 1.5 1.5 0 0 0-.43 1.05v.34a1.27 1.27 0 0 1 0 .23c.56.5 1.15 1 1.77 1.64s1.25 1.17 1.93 1.73a23.48 23.48 0 0 0 2 1.62 13.42 13.42 0 0 0 2.09 1.25 8.52 8.52 0 0 0 1.79.69l1.92.53c.64.2 1.26.4 1.87.65a7.85 7.85 0 0 1 1.66.92 8.07 8.07 0 0 1 1.33 1.42l1.11 1.52c.34.5.72 1 1.11 1.47a6.14 6.14 0 0 0 1.47 1.29 6.23 6.23 0 0 0 1.66.6 13.92 13.92 0 0 1 2 .65 6 6 0 0 1 1.77 1 2.13 2.13 0 0 1 .76 1.72 1.16 1.16 0 0 1-.06.28.84.84 0 0 0 0 .23l-5.58 1.16a3.52 3.52 0 0 0-1.08.38 2.27 2.27 0 0 1-1.15.27H159c-.18-.12-.56-.34-1.12-.64s-1.11-.65-1.72-1-1.17-.7-1.68-1a6.25 6.25 0 0 1-1-.76s-.1-.08-.2-.21-.2-.32-.31-.5l-.35-.55c-.1-.19-.2-.34-.25-.45l-2.23-4.55c-.23-.08-.61-.23-1.13-.45s-1.14-.46-1.8-.75-1.36-.6-2.12-.93-1.44-.67-2.12-1-1.26-.59-1.77-.84a11 11 0 0 1-1.1-.6 23.45 23.45 0 0 1-2.76-1.58 16.3 16.3 0 0 1-2.6-2.16 13.44 13.44 0 0 1-2-2.7 8.28 8.28 0 0 1-1-3.16l-.56.24a3 3 0 0 0-.6.33 7 7 0 0 1-.85.65c-.46.34-1 .74-1.69 1.19l-2.11 1.42-2.1 1.36-1.74 1.09a9.75 9.75 0 0 1-.94.53c-2.23 1.36-4.21 2.54-5.93 3.56a23.29 23.29 0 0 0-4.51 3.44 17.56 17.56 0 0 0-3.59 4.47c-.87 1.72-.71 3.94-2.35 6.67v.63a4.51 4.51 0 0 0 0 .52v.43a10.12 10.12 0 0 0 1.14 4.48 7.73 7.73 0 0 0 2.11 2.58 8 8 0 0 0 2.6 1.42c.91.32 1.79.64 2.55 1a5.44 5.44 0 0 1 1.94 1 5.08 5.08 0 0 1 .8 2h-13.2s-.08-.25-.18-.4-.23-.11-.36-.2a4.77 4.77 0 0 0-.49-.15 3 3 0 0 1-.61-.32 3 3 0 0 1-1.25-1.55 8.69 8.69 0 0 1-.46-2.18 15.64 15.64 0 0 1 .2-2.35c0-.78.27-1.46.27-2.06v-1.47a6.89 6.89 0 0 1 .27-1.77c.21-.82.33-1.72.57-2.72s.47-2.06.77-3.17.54-2.18.79-3.18.48-1.9.66-2.68.34-1.39.42-1.77a17 17 0 0 1 .65-2 13.53 13.53 0 0 1 1-1.91 14.17 14.17 0 0 0 4.47-2.58 28.67 28.67 0 0 0 3.22-3.31q1.47-1.73 2.87-3.45a15.22 15.22 0 0 1 3.41-3.11 6.93 6.93 0 0 1 1.43-.72c.6-.23 1.29-.52 2-.8s1.52-.63 2.3-1a15.87 15.87 0 0 0 2.14-1.13 7.79 7.79 0 0 0 1.56-1.34 2.35 2.35 0 0 0 .61-1.57v-1.33a1.85 1.85 0 0 0-.62-1.22l-.76-.29c-.36-.15-.75-.33-1.18-.53l-1.17-.57c-.37-.17-.62-.28-.77-.33a10.15 10.15 0 0 1-2-1.22l-2.61-1.9c-.91-.67-1.75-1.06-2.53-1.57a3.06 3.06 0 0 0-1.73-.57h-7.81c-5.93 0-11.76-.1-17.52.1s-11.58.2-17.52.2c-4.35 0-8.61-.15-12.75-.37a105.78 105.78 0 0 1-12.28-1.38 83.21 83.21 0 0 1-11.91-3 68.54 68.54 0 0 1-11.69-5.08l-1.41-.72a14.14 14.14 0 0 1-1.58-1 5.83 5.83 0 0 1-1.28-1.3 2.62 2.62 0 0 1-.53-1.59 6.73 6.73 0 0 1 2.09.4c.79.28 1.59.59 2.38.94s1.51.66 2.17 1 1.15.52 1.5.64c1.43.56 3 1.13 4.62 1.66s3.32 1 5 1.46 3.4.75 5.08 1a32.83 32.83 0 0 0 4.81.35h25.1a9.7 9.7 0 0 0 1.22-.12l2.53-.35c1-.13 2.12-.31 3.33-.52s2.42-.42 3.6-.62 2.34-.4 3.4-.61 2-.42 2.65-.59q3.21-.61 6.84-1.35c2.41-.47 4.85-1 7.29-1.62s4.85-1.32 7.2-2.12a46.42 46.42 0 0 0 6.56-2.82l3.8-1.79c1.23-.58 2.48-1.13 3.76-1.62s2.58-1 3.91-1.33a32.42 32.42 0 0 1 4.18-.92 8.6 8.6 0 0 1 1-.12l1.78-.11 1.76-.15a4.28 4.28 0 0 0 1-.19 14.52 14.52 0 0 0 1.88-.33c.95-.2 2-.45 3.32-.74s2.61-.58 4-.91 2.76-.64 4-.92 2.35-.93 3.29-1.13 1.56-.73 1.87-.73h6.49c2.7 0 5.33.49 7.88.72s5.13.52 7.77.52a9.89 9.89 0 0 0 5-1.26 18.33 18.33 0 0 0 4.47-3.53 32.94 32.94 0 0 0 3.86-5c1.18-1.87 2.25-3.76 3.22-5.7s1.83-3.8 2.53-5.62 1.3-3.44 1.76-4.84c.43-1.2.79-2.37 1.12-3.49s.66-2.18 1-3.15a16.46 16.46 0 0 1 1.2-2.64 7.52 7.52 0 0 1 1.76-2 7.8 7.8 0 0 1 2.6-1.61 12.06 12.06 0 0 1 3.76-.8h3c.76 1.67 1.75.92 3 1.32a35.68 35.68 0 0 1 3.52 1.54 14.92 14.92 0 0 1 3 1.84 2.84 2.84 0 0 1 1.23 2.19 2.13 2.13 0 0 1-.44 1.42 3 3 0 0 1-1.16.79z"/></symbol><symbol id="velociraptor" viewBox="0 0 256 256"><path d="M128-.33C58.41-.33 2 57 2 127.67s56.41 128 126 128 126-57.3 126-128-56.41-128-126-128zm109 116.8c-1.4.08-2.76.08-4.08 0s-2.4-.08-3.22-.08c-3 0-6-.15-9.06-.45s-6-.64-9-1-6-.67-9-1-6-.45-9.1-.45a131.42 131.42 0 0 0-16.14 1 71.66 71.66 0 0 0-15.68 3.72l-30.26 11.1a2.54 2.54 0 0 0-1.2 1.57 20.4 20.4 0 0 0-.8 2.76c-.23 1-.43 1.95-.63 2.87a7.25 7.25 0 0 1-.6 2 3.11 3.11 0 0 0 1.36 1.33 18.91 18.91 0 0 0 2.42 1.17c.9.39 1.85.77 2.86 1.19a18.26 18.26 0 0 1 2.74 1.45 8.42 8.42 0 0 1 2.07 1.89 3.92 3.92 0 0 1 .81 2.47 1.68 1.68 0 0 1-.48 1.22 4.72 4.72 0 0 1-1.2.88 13 13 0 0 1-1.59.74 9.19 9.19 0 0 0-1.6.8 4.61 4.61 0 0 0-1.21 1.05 2.34 2.34 0 0 0-.48 1.52 3.74 3.74 0 0 0 .79 2.55 7.62 7.62 0 0 0 1.9 1.59c.74.47 1.53.9 2.35 1.34a7.31 7.31 0 0 1 2.14 1.73 17.64 17.64 0 0 1 2 3.48 24.1 24.1 0 0 1 1.26 3.7 36 36 0 0 1 .76 3.88c.18 1.31.1 2.65.25 4l1.31 1.32V185a3.78 3.78 0 0 1 .85 0c.28.05.7.1 1 .18l1 .22a1.43 1.43 0 0 1 .56.24c0 .45.08.73.08.85a6.46 6.46 0 0 1-.11 1 6.75 6.75 0 0 1-.36 1.25 3.14 3.14 0 0 1-.62.94 1 1 0 0 1-.87.31H143c-.2 0-.51-.53-1-.83s-.95-.54-1.48-.86-1-.47-1.54-.78-.89-.87-1.15-.87h-6.1a4.77 4.77 0 0 1 .64-3 4.27 4.27 0 0 1 1.63-1.56 6.7 6.7 0 0 1 2.1-.66c.74-.1 1.45-.22 2.1-.35a4.81 4.81 0 0 0 1.62-.61 1.5 1.5 0 0 0 .64-1.37 2.31 2.31 0 0 0 0-.34v-.3c-.18-.42-.46-1-.84-1.79s-.79-1.59-1.27-2.44a28.42 28.42 0 0 0-1.51-2.49 9.69 9.69 0 0 0-1.54-1.82 8.2 8.2 0 0 0-1.29-.8c-.59-.3-1.21-.61-1.84-.95a18.63 18.63 0 0 1-1.74-1.07 2.16 2.16 0 0 1-.95-1.1 23.15 23.15 0 0 1-.92-2.95 21.58 21.58 0 0 0-1.07-3.24 8 8 0 0 0-1.71-2.61 3.89 3.89 0 0 0-2.86-1.05 23 23 0 0 0-6 .8 26.32 26.32 0 0 0-5.67 2.26 25.51 25.51 0 0 0-5 3.48 22.5 22.5 0 0 0-3.89 4.61.42.42 0 0 1-.35.19h-.16a.14.14 0 0 1-.12-.15.68.68 0 0 1-.2-.33c0-.18-.09-.4-.16-.64s-.12-.43-.16-.61a.72.72 0 0 0-.15-.34.62.62 0 0 0-.28-.06 1.37 1.37 0 0 0-1 .48 6 6 0 0 0-.87 1.17l-.83 1.33a3.8 3.8 0 0 1-.83 1 4.49 4.49 0 0 1-.65-1.66 15.14 15.14 0 0 1-.1-1.68 10.35 10.35 0 0 1 .4-2.92c.26-.94.56-1.87.88-2.82s.64-1.59.91-2.57a20.38 20.38 0 0 0 .39-2.79h-4.81c0-1.67.21-1.82.64-2.39A5.87 5.87 0 0 1 96.5 151a6.88 6.88 0 0 1 2.11-.91 9.83 9.83 0 0 1 2.1-.3 19.94 19.94 0 0 1 3 .2c1 .17 2 .31 2.91.47s1.91.33 2.86.47a21.26 21.26 0 0 0 2.89.19h2.29a2.55 2.55 0 0 0-1.68-1.36 15.09 15.09 0 0 0-2.51-.46l-2.67-.2c-.88-.05-1.59.15-2.17-.2l-3.86-2.2h-.28a13.22 13.22 0 0 0-3.14 0 12.89 12.89 0 0 1-3.12.16 7.21 7.21 0 0 1-3-.7 26.17 26.17 0 0 1-2.62-1.38c-.84-.49-1.76-1-2.59-1.36a5 5 0 0 0-2.86-.63v6.09a12.32 12.32 0 0 0 1.57-.15 5.33 5.33 0 0 0 1-.33 4.75 4.75 0 0 0 .87-.52c.32-.2.37-.42.88-.65.12-.07.61-.13.61-.17v2.79l2-.68c0 .11.2.28.22.52s.12.38.12.5a5.63 5.63 0 0 1-1.3 3.9 21.57 21.57 0 0 1-3.23 2.92 22 22 0 0 0-4.56-1.26c-1.5-.25-3.09-.47-4.74-.67v-7.85c0 .08-1 .25-1.72.54a14.69 14.69 0 0 0-2 1 12 12 0 0 0-1.9 1.2c-.46.42-.92.82-.92 1.18v7a10.25 10.25 0 0 0 2.94-.28 12 12 0 0 0 1.82-.61 12.66 12.66 0 0 0 1.22-.6 2.6 2.6 0 0 1 1.21-.28h.14a.79.79 0 0 0 .2 0c0 .11.14.35.29.73s.29.8.46 1.25.28.91.38 1.31a4.56 4.56 0 0 1 .18 1 5.22 5.22 0 0 1-.39 1.92 7.38 7.38 0 0 1-1.07 1.82 5.71 5.71 0 0 1-1.55 1.36 3 3 0 0 1-2.38.48L74 166c-.74-.15-1.73-.32-3-.48a28.27 28.27 0 0 1-3.62-.72 11.88 11.88 0 0 1-3.21-1.25 2.53 2.53 0 0 1-1.44-2.11v-11.73c0-.11.39-.38.88-.83s1.16-1 1.87-1.62 1.52-1.37 2.36-2.19a27.93 27.93 0 0 0 2.35-2.55 20.27 20.27 0 0 0 1.8-2.68 5.55 5.55 0 0 0 .73-2.6 3.89 3.89 0 0 0-1.17-2.79 11.52 11.52 0 0 0-2.77-2 23.39 23.39 0 0 0-3.14-1.45q-1.64-.55-2.52-.9l-1.3-9.17c-.14-.83-.34-1.73-.6-2.72a12.06 12.06 0 0 0-1.11-2.77 7.42 7.42 0 0 0-1.75-2.16 4.05 4.05 0 0 0-2.63-.88 12.4 12.4 0 0 0-3.6.48 14.46 14.46 0 0 0-3.19 1.51c-.33.23-.87.56-1.63 1l-2.51 1.5-2.94 1.77c-1 .62-2 1.21-3 1.76s-1.77 1.23-2.51 1.67-1.3 1.12-1.63 1.12h-1c-.46 0-1-.2-1.71-.24a14.21 14.21 0 0 1-2.05-.37 3.38 3.38 0 0 1-1.37-.77c-.46-.32-.34-.81-.34-1.38v-1.89c0-.6-.22-.91.05-.93s.66 0 1.55 0a1.23 1.23 0 0 1 0-.43c.07-.25.09-.52.16-.82s.12-.6.17-.87a.89.89 0 0 0 0-.5 2.37 2.37 0 0 0-.8-.83l-.87-.5a2.59 2.59 0 0 1-.69-.67 2 2 0 0 1-.28-1.25 3.36 3.36 0 0 1 .24-1.19 5.1 5.1 0 0 1 .68-1.17c.28-.37.24-.65.6-.88a3.37 3.37 0 0 1 .81-.34v.82c0 .5.41 1 .56 1.48a1.16 1.16 0 0 0 1.19.74 1.58 1.58 0 0 0 1.09-.49 5.58 5.58 0 0 0 .95-1.13 11.88 11.88 0 0 0 .63-1.65c.14-.45.25.28.25-1.39H22.49a1.87 1.87 0 0 1-.85-.48 12.4 12.4 0 0 1-1-.68 6.41 6.41 0 0 1-.9-.8 1.49 1.49 0 0 1-.39-1 4.64 4.64 0 0 1 1.06-3.21A7.56 7.56 0 0 1 23 98.51a16.88 16.88 0 0 1 3.16-1 20.91 20.91 0 0 0 2.83-.83c.41-.15 1.15-.47 2.18-.94s2.17-1 3.34-1.57 2.28-1.07 3.3-1.59a10 10 0 0 1 2.17-1.08h13.5a7.17 7.17 0 0 1 3.82 1 12.93 12.93 0 0 1 3.04 2.5 26.2 26.2 0 0 1 2.52 3.33c.77 1.19 1.53 2.3 2.27 3.32a15.89 15.89 0 0 0 2.25 2.57 3.6 3.6 0 0 0 2.46 1 .83.83 0 0 0 .78-.4.85.85 0 0 1 .83-.4 3.88 3.88 0 0 1 1.5.31c.49.2 1 .45 1.51.72s1 .5 1.51.7a3.81 3.81 0 0 0 1.55.32c1.38 0 2.74-.07 4.08-.2s2.69-.28 4.05-.45 2.73-.34 4.08-.49a36.51 36.51 0 0 1 4.08-.23 62.43 62.43 0 0 1 7.23.4 37.63 37.63 0 0 1 7.16 1.59 53.69 53.69 0 0 1 5 2c1.68.75 3.37 1.49 5.06 2.19a47.23 47.23 0 0 0 5.18 1.77 20.76 20.76 0 0 0 5.39.7h1.25c.62 0 1-.07 1.31-.07 4.26-.93 8.52-1.85 12.76-2.72s8.48-1.65 12.7-2.3 8.52-1.17 12.8-1.57 8.63-.57 13-.57H186c1.79 0 3.61 0 5.45.12a40 40 0 0 1 5 .93l36.07 7.3h11.61c-.79 0-1.83 1-3.11 1.37a18.5 18.5 0 0 1-4.02.23z"/></symbol></svg>